<svg xmlns="http://www.w3.org/2000/svg" viewBox="0 0 200 200" width="200" height="200">
  <!-- Background -->
  <rect width="200" height="200" fill="white" rx="8"/>
  <rect x="4" y="4" width="192" height="192" fill="none" stroke="#064733" stroke-width="3" rx="6"/>

  <!-- Top-left finder pattern -->
  <rect x="12" y="12" width="56" height="56" fill="none" stroke="#064733" stroke-width="3"/>
  <rect x="20" y="20" width="40" height="40" fill="#064733"/>
  <rect x="28" y="28" width="24" height="24" fill="white"/>
  <rect x="32" y="32" width="16" height="16" fill="#064733"/>

  <!-- Top-right finder pattern -->
  <rect x="132" y="12" width="56" height="56" fill="none" stroke="#064733" stroke-width="3"/>
  <rect x="140" y="20" width="40" height="40" fill="#064733"/>
  <rect x="148" y="28" width="24" height="24" fill="white"/>
  <rect x="152" y="32" width="16" height="16" fill="#064733"/>

  <!-- Bottom-left finder pattern -->
  <rect x="12" y="132" width="56" height="56" fill="none" stroke="#064733" stroke-width="3"/>
  <rect x="20" y="140" width="40" height="40" fill="#064733"/>
  <rect x="28" y="148" width="24" height="24" fill="white"/>
  <rect x="32" y="152" width="16" height="16" fill="#064733"/>

  <!-- Simulated data modules (decorative) -->
  <g fill="#064733" opacity="0.9">
    <rect x="80" y="12" width="6" height="6"/><rect x="92" y="12" width="6" height="6"/>
    <rect x="104" y="12" width="6" height="6"/><rect x="116" y="12" width="6" height="6"/>
    <rect x="80" y="24" width="6" height="6"/><rect x="104" y="24" width="6" height="6"/>
    <rect x="80" y="36" width="6" height="6"/><rect x="92" y="36" width="6" height="6"/>
    <rect x="116" y="36" width="6" height="6"/><rect x="80" y="48" width="6" height="6"/>
    <rect x="104" y="48" width="6" height="6"/><rect x="92" y="60" width="6" height="6"/>
    <rect x="116" y="60" width="6" height="6"/>

    <rect x="12" y="80" width="6" height="6"/><rect x="24" y="80" width="6" height="6"/>
    <rect x="48" y="80" width="6" height="6"/><rect x="60" y="80" width="6" height="6"/>
    <rect x="12" y="92" width="6" height="6"/><rect x="36" y="92" width="6" height="6"/>
    <rect x="60" y="92" width="6" height="6"/><rect x="24" y="104" width="6" height="6"/>
    <rect x="48" y="104" width="6" height="6"/><rect x="12" y="116" width="6" height="6"/>
    <rect x="36" y="116" width="6" height="6"/><rect x="60" y="116" width="6" height="6"/>

    <rect x="80" y="80" width="6" height="6"/><rect x="92" y="80" width="6" height="6"/>
    <rect x="104" y="80" width="6" height="6"/><rect x="116" y="92" width="6" height="6"/>
    <rect x="80" y="92" width="6" height="6"/><rect x="104" y="92" width="6" height="6"/>
    <rect x="92" y="104" width="6" height="6"/><rect x="116" y="104" width="6" height="6"/>
    <rect x="80" y="116" width="6" height="6"/><rect x="104" y="116" width="6" height="6"/>

    <rect x="132" y="80" width="6" height="6"/><rect x="144" y="80" width="6" height="6"/>
    <rect x="168" y="80" width="6" height="6"/><rect x="132" y="92" width="6" height="6"/>
    <rect x="156" y="92" width="6" height="6"/><rect x="144" y="104" width="6" height="6"/>
    <rect x="168" y="104" width="6" height="6"/><rect x="132" y="116" width="6" height="6"/>
    <rect x="156" y="116" width="6" height="6"/><rect x="168" y="116" width="6" height="6"/>

    <rect x="80" y="132" width="6" height="6"/><rect x="92" y="132" width="6" height="6"/>
    <rect x="116" y="132" width="6" height="6"/><rect x="80" y="144" width="6" height="6"/>
    <rect x="104" y="144" width="6" height="6"/><rect x="92" y="156" width="6" height="6"/>
    <rect x="116" y="156" width="6" height="6"/><rect x="80" y="168" width="6" height="6"/>
    <rect x="104" y="168" width="6" height="6"/><rect x="116" y="168" width="6" height="6"/>

    <rect x="132" y="132" width="6" height="6"/><rect x="156" y="132" width="6" height="6"/>
    <rect x="168" y="132" width="6" height="6"/><rect x="144" y="144" width="6" height="6"/>
    <rect x="168" y="144" width="6" height="6"/><rect x="132" y="156" width="6" height="6"/>
    <rect x="156" y="156" width="6" height="6"/><rect x="144" y="168" width="6" height="6"/>
    <rect x="168" y="168" width="6" height="6"/>
  </g>

  <!-- QRIS label -->
  <rect x="56" y="82" width="88" height="36" fill="white" rx="4"/>
  <text x="100" y="98" font-family="Arial, sans-serif" font-size="10" font-weight="bold"
        fill="#064733" text-anchor="middle">QRIS</text>
  <text x="100" y="112" font-family="Arial, sans-serif" font-size="7.5"
        fill="#948675" text-anchor="middle">Scentsored</text>
</svg>
