<?xml version="1.0" encoding="utf-8"?>
<!-- Generator: Adobe Illustrator 28.4.1, SVG Export Plug-In . SVG Version: 6.00 Build 0)  -->
<svg version="1.1" xmlns="http://www.w3.org/2000/svg" xmlns:xlink="http://www.w3.org/1999/xlink" x="0px" y="0px"
	 viewBox="0 0 102.1 55.4" style="enable-background:new 0 0 102.1 55.4;" xml:space="preserve">
<style type="text/css">
	.st0{display:none;}
	.st1{display:inline;fill:#231F20;}
	.st2{font-family:'chatime-Regular';}
	.st3{font-size:14.1246px;}
	.st4{display:inline;}
	.st5{fill-rule:evenodd;clip-rule:evenodd;fill:#231F20;}
	.st6{fill-rule:evenodd;clip-rule:evenodd;}
	#Layer_2 path, #Layer_2 rect { stroke: #231F20; stroke-width: 0.35; paint-order: stroke fill; }
</style>
<g id="Layer_1" class="st0">
	<text transform="matrix(1 0 0 1 12.0469 39.6406)" class="st1 st2 st3">SCENTSORED</text>
	<g class="st4">
		<g>
			<g>
				<path class="st5" d="M45.3,9l-0.2,0v1.1h0.2l0.1-0.2c0.1-0.2,0.3-0.5,0.5-0.7s0.4-0.4,0.7-0.4c0.4-0.1,0.8-0.2,1.2-0.2
					c0.2,0,0.4,0,0.6,0.1c0.2,0.1,0.3,0.2,0.5,0.3s0.2,0.3,0.3,0.5c0.1,0.2,0.1,0.4,0.1,0.6c0,0.3-0.2,0.5-0.6,0.8
					c-0.4,0.3-1,0.6-1.7,0.9c-0.3,0.1-0.7,0.3-0.9,0.4c-0.3,0.2-0.5,0.4-0.7,0.6c-0.2,0.2-0.3,0.4-0.4,0.6c-0.1,0.2-0.2,0.4-0.2,0.6
					c0,0.3,0.1,0.6,0.2,0.8c0.1,0.2,0.3,0.5,0.5,0.6c0.2,0.2,0.5,0.3,0.8,0.4c0.3,0.1,0.6,0.1,1,0.1c0.3,0,0.7-0.1,1-0.1
					c0.3-0.1,0.6-0.2,0.9-0.4c0.2-0.1,0.3-0.2,0.5-0.2s0.2,0,0.2,0.1l0,0.1h0.2V14h-0.2l-0.1,0.2c-0.1,0.3-0.3,0.5-0.5,0.8
					c-0.2,0.2-0.4,0.4-0.7,0.6c-0.2,0.1-0.4,0.2-0.7,0.3c-0.2,0.1-0.5,0.1-0.7,0.1s-0.5,0-0.7-0.1s-0.4-0.2-0.5-0.3
					c-0.2-0.1-0.3-0.3-0.4-0.5c-0.1-0.2-0.1-0.4-0.1-0.7c0-0.2,0.2-0.5,0.5-0.8c0.3-0.3,0.8-0.5,1.5-0.8c0.4-0.1,0.7-0.3,1-0.5
					c0.3-0.2,0.6-0.4,0.8-0.6c0.2-0.2,0.4-0.4,0.5-0.6s0.2-0.4,0.2-0.6c0-0.3-0.1-0.5-0.2-0.8c-0.1-0.2-0.3-0.4-0.5-0.6
					s-0.4-0.3-0.7-0.4c-0.3-0.1-0.6-0.1-0.9-0.1c-0.4,0-0.8,0.1-1.2,0.1c-0.3,0.1-0.5,0.2-0.8,0.3C45.7,9,45.6,9,45.5,9
					C45.4,9.1,45.4,9.1,45.3,9L45.3,9z"/>
				<path class="st5" d="M56.8,9l0-0.2h-1.1v0.2l0.2,0.1c0.2,0.1,0.5,0.3,0.7,0.5s0.4,0.4,0.5,0.7c0.2,0.4,0.2,0.8,0.2,1.2
					c0,0.2,0,0.4-0.1,0.6c-0.1,0.2-0.2,0.3-0.3,0.5s-0.3,0.2-0.5,0.3C56.2,12.9,56,13,55.7,13c-0.3,0-0.5-0.2-0.8-0.6
					c-0.3-0.4-0.6-0.9-0.9-1.7c-0.1-0.4-0.3-0.7-0.4-0.9c-0.2-0.3-0.4-0.5-0.6-0.7s-0.4-0.3-0.6-0.4c-0.2-0.1-0.4-0.1-0.6-0.1
					c-0.3,0-0.6,0.1-0.8,0.2c-0.2,0.1-0.5,0.3-0.6,0.5C50.1,9.4,50,9.7,49.9,10c-0.1,0.3-0.2,0.6-0.2,1c0,0.4,0,0.7,0.1,1
					c0.1,0.3,0.2,0.6,0.4,0.9c0.1,0.2,0.2,0.3,0.2,0.5s0,0.2-0.1,0.2l-0.1,0.1v0.2h1.5v-0.2l-0.2-0.1c-0.3-0.1-0.5-0.3-0.8-0.5
					c-0.2-0.2-0.4-0.4-0.5-0.6c-0.1-0.2-0.2-0.4-0.3-0.7c-0.1-0.2-0.1-0.5-0.1-0.7s0-0.5,0.1-0.7c0.1-0.2,0.2-0.4,0.3-0.6
					c0.2-0.1,0.3-0.3,0.5-0.4c0.2-0.1,0.4-0.1,0.7-0.1c0.2,0,0.5,0.2,0.8,0.5c0.3,0.4,0.5,0.9,0.8,1.5c0.1,0.4,0.3,0.7,0.5,1.1
					c0.2,0.3,0.4,0.6,0.6,0.8c0.2,0.2,0.4,0.4,0.6,0.5s0.4,0.2,0.6,0.2c0.3,0,0.5-0.1,0.8-0.2s0.4-0.3,0.6-0.5
					c0.2-0.2,0.3-0.4,0.4-0.7c0.1-0.3,0.1-0.6,0.1-0.9c0-0.4,0-0.8-0.2-1.1C57,10,57,9.8,56.8,9.5c0-0.1-0.1-0.2-0.1-0.3
					C56.7,9.2,56.7,9.1,56.8,9L56.8,9z"/>
				<path class="st5" d="M56.7,20.5l0.2,0v-1.1h-0.2l-0.1,0.2c-0.1,0.2-0.3,0.5-0.5,0.7c-0.2,0.2-0.4,0.4-0.7,0.5
					c-0.4,0.1-0.8,0.2-1.2,0.2c-0.2,0-0.4,0-0.6-0.1c-0.2-0.1-0.3-0.2-0.5-0.3s-0.2-0.3-0.3-0.5c-0.1-0.2-0.1-0.4-0.1-0.6
					c0-0.3,0.2-0.5,0.6-0.8c0.4-0.3,1-0.6,1.7-0.9c0.3-0.1,0.7-0.3,0.9-0.4s0.5-0.4,0.7-0.6c0.2-0.2,0.3-0.4,0.4-0.6
					c0.1-0.2,0.2-0.4,0.2-0.6c0-0.3-0.1-0.6-0.2-0.8c-0.1-0.2-0.3-0.5-0.5-0.6c-0.2-0.2-0.5-0.3-0.8-0.4c-0.3-0.1-0.6-0.1-1-0.1
					c-0.3,0-0.7,0.1-1,0.1c-0.3,0.1-0.6,0.2-0.9,0.4c-0.2,0.1-0.3,0.2-0.5,0.2s-0.2,0-0.2-0.1l0-0.1h-0.2v1.4h0.2l0.1-0.2
					c0.1-0.3,0.3-0.5,0.5-0.8c0.2-0.2,0.4-0.4,0.7-0.6c0.2-0.1,0.4-0.2,0.7-0.3c0.2-0.1,0.5-0.1,0.7-0.1s0.5,0,0.7,0.1
					s0.4,0.2,0.5,0.3c0.2,0.1,0.3,0.3,0.4,0.5c0.1,0.2,0.1,0.4,0.1,0.7c0,0.2-0.2,0.5-0.5,0.8c-0.3,0.3-0.8,0.5-1.5,0.8
					c-0.4,0.1-0.7,0.3-1,0.5c-0.3,0.2-0.6,0.4-0.8,0.6c-0.2,0.2-0.4,0.4-0.5,0.6S52,18.9,52,19.1c0,0.3,0.1,0.5,0.2,0.8
					c0.1,0.2,0.3,0.4,0.5,0.6s0.4,0.3,0.7,0.4C53.7,21,54,21,54.3,21c0.4,0,0.8,0,1.2-0.1c0.3-0.1,0.5-0.2,0.8-0.3
					c0.1,0,0.2-0.1,0.3-0.1C56.6,20.4,56.7,20.4,56.7,20.5L56.7,20.5z"/>
				<path class="st5" d="M45.3,20.5l0,0.2h1.1v-0.2l-0.2-0.1c-0.2-0.1-0.5-0.3-0.7-0.5s-0.4-0.4-0.5-0.7c-0.2-0.4-0.2-0.8-0.2-1.2
					c0-0.2,0-0.4,0.1-0.6c0.1-0.2,0.2-0.3,0.3-0.5s0.3-0.2,0.5-0.3c0.2-0.1,0.4-0.1,0.6-0.1c0.3,0,0.5,0.2,0.8,0.6
					c0.3,0.4,0.6,1,0.9,1.7c0.1,0.4,0.3,0.7,0.4,0.9s0.4,0.5,0.6,0.7s0.4,0.3,0.6,0.4c0.2,0.1,0.4,0.1,0.6,0.1
					c0.3,0,0.6-0.1,0.8-0.2c0.2-0.1,0.5-0.3,0.6-0.5c0.2-0.2,0.3-0.5,0.4-0.8c0.1-0.3,0.2-0.6,0.2-1c0-0.4,0-0.7-0.1-1
					c-0.1-0.3-0.2-0.6-0.4-0.9c-0.1-0.2-0.2-0.3-0.2-0.5c0-0.1,0-0.2,0.1-0.2l0.1,0v-0.2h-1.4v0.2l0.2,0.1c0.3,0.1,0.5,0.3,0.8,0.5
					s0.4,0.4,0.5,0.6c0.1,0.2,0.2,0.4,0.3,0.7c0.1,0.2,0.1,0.5,0.1,0.7s0,0.5-0.1,0.7c-0.1,0.2-0.2,0.4-0.3,0.5
					c-0.2,0.1-0.3,0.3-0.5,0.4s-0.4,0.1-0.7,0.1c-0.2,0-0.5-0.2-0.8-0.5c-0.3-0.4-0.5-0.9-0.8-1.5c-0.1-0.4-0.3-0.7-0.5-1
					s-0.4-0.6-0.6-0.8c-0.2-0.2-0.4-0.4-0.6-0.5c-0.2-0.1-0.4-0.2-0.6-0.2c-0.3,0-0.5,0.1-0.8,0.2c-0.2,0.1-0.4,0.3-0.6,0.5
					c-0.2,0.2-0.3,0.4-0.4,0.7c-0.1,0.3-0.1,0.6-0.1,0.9c0,0.4,0,0.8,0.2,1.1c0.1,0.3,0.2,0.5,0.3,0.8c0,0.1,0.1,0.2,0.1,0.3
					C45.3,20.4,45.3,20.4,45.3,20.5L45.3,20.5z"/>
				<rect x="50.2" y="14" transform="matrix(0.7071 -0.7071 0.7071 0.7071 4.5117 40.398)" class="st5" width="1.6" height="1.6"/>
			</g>
			<path class="st5" d="M51,3.2c2.3,0,4.5,1,6,2.5c1.5,1.5,2.5,3.7,2.5,6v6c0,2.3-1,4.5-2.5,6c-1.5,1.5-3.7,2.5-6,2.5
				c-2.3,0-4.5-1-6-2.5c-1.5-1.5-2.5-3.7-2.5-6v-6c0-2.3,1-4.5,2.5-6C46.6,4.2,48.7,3.2,51,3.2L51,3.2z M51,3.6
				c-2.2,0-4.3,0.9-5.8,2.4s-2.4,3.5-2.4,5.8v6c0,2.2,0.9,4.3,2.4,5.8C46.7,25,48.8,26,51,26c2.2,0,4.3-0.9,5.8-2.4s2.4-3.5,2.4-5.8
				v-6c0-2.2-0.9-4.3-2.4-5.8C55.3,4.5,53.3,3.6,51,3.6z"/>
			<g>
				<g>
					<path class="st5" d="M51,24.2c-0.2-0.1-0.3-0.4-0.3-0.7s0.1-0.5,0.3-0.7c0.2,0.1,0.3,0.4,0.3,0.7C51.4,23.8,51.2,24.1,51,24.2z
						"/>
					<path class="st5" d="M51,22.8c-0.5,0-0.9,0.3-1,0.9c0.4-0.3,0.5-0.3,1-0.4c0.5,0,0.6,0.1,1,0.4C51.9,23.1,51.6,22.8,51,22.8z"
						/>
				</g>
				<g>
					<path class="st5" d="M51,5.3c-0.2,0.1-0.3,0.4-0.3,0.7s0.1,0.5,0.3,0.7c0.2-0.1,0.3-0.4,0.3-0.7S51.2,5.4,51,5.3z"/>
					<path class="st5" d="M51,6.7c-0.5,0-0.9-0.3-1-0.9c0.4,0.3,0.5,0.3,1,0.3c0.5,0,0.6-0.1,1-0.3C51.9,6.4,51.6,6.7,51,6.7z"/>
				</g>
			</g>
		</g>
	</g>
	<text transform="matrix(1 0 0 1 14.3418 52.1875)" class="st1 st2 st3">PERFUMERY</text>
</g>
<g id="Layer_2">
	<g>
		<g>
			<path class="st6" d="M8.8,24.6l0.2,0v1.6H8.8L8.7,26c-0.2-0.4-0.4-0.7-0.7-1c-0.3-0.3-0.6-0.5-0.9-0.7c-0.5-0.2-1-0.3-1.6-0.3
				c-0.3,0-0.5,0.1-0.8,0.2c-0.2,0.1-0.5,0.3-0.6,0.5c-0.2,0.2-0.3,0.4-0.4,0.7c-0.1,0.3-0.1,0.6-0.1,0.9c0,0.4,0.3,0.8,0.8,1.2
				c0.5,0.5,1.3,0.9,2.3,1.3c0.5,0.2,0.9,0.4,1.3,0.7c0.4,0.3,0.7,0.5,0.9,0.8c0.3,0.3,0.4,0.6,0.6,0.9c0.1,0.3,0.2,0.6,0.2,0.9
				c0,0.4-0.1,0.8-0.3,1.2c-0.2,0.4-0.4,0.7-0.7,0.9c-0.3,0.3-0.7,0.5-1.1,0.6C7.2,34.9,6.7,35,6.2,35c-0.5,0-0.9-0.1-1.4-0.2
				c-0.5-0.1-0.9-0.3-1.2-0.6c-0.2-0.2-0.5-0.3-0.6-0.3c-0.2,0-0.3,0-0.3,0.1l-0.1,0.2H2.3V32h0.3l0.1,0.3c0.2,0.4,0.4,0.8,0.7,1.2
				c0.3,0.4,0.6,0.6,0.9,0.8c0.3,0.2,0.6,0.3,0.9,0.4c0.3,0.1,0.6,0.1,1,0.1c0.3,0,0.6-0.1,0.9-0.2c0.3-0.1,0.5-0.3,0.7-0.5
				c0.2-0.2,0.4-0.5,0.5-0.8c0.1-0.3,0.2-0.6,0.2-1c0-0.3-0.2-0.7-0.7-1.1c-0.5-0.4-1.1-0.8-2-1.1c-0.5-0.2-1-0.4-1.4-0.7
				c-0.4-0.3-0.8-0.6-1-0.9c-0.3-0.3-0.5-0.6-0.6-0.9c-0.1-0.3-0.2-0.6-0.2-0.9c0-0.4,0.1-0.8,0.2-1.1c0.1-0.3,0.4-0.6,0.6-0.9
				c0.3-0.3,0.6-0.4,1-0.6c0.4-0.1,0.8-0.2,1.2-0.2c0.6,0,1.1,0.1,1.5,0.2l0.7,0.3c0.1,0,0.2,0.1,0.4,0.2c0.1,0.1,0.3,0.1,0.4,0.1
				C8.7,24.8,8.7,24.8,8.8,24.6L8.8,24.6L8.8,24.6z M2.5,32.6"/>
		</g>
		<g>
			<path d="M20.4,34.2l-0.2,0l-0.1-0.1c0-0.1-0.2-0.1-0.3-0.1c-0.2,0-0.4,0.1-0.6,0.2c-0.4,0.3-0.9,0.4-1.5,0.6
				c-0.6,0.1-1.2,0.2-2,0.2c-0.8,0-1.5-0.1-2.2-0.4c-0.7-0.3-1.2-0.7-1.7-1.2c-0.5-0.5-0.9-1.1-1.1-1.8c-0.3-0.7-0.4-1.4-0.4-2.2
				c0-0.8,0.1-1.6,0.4-2.2c0.3-0.7,0.7-1.3,1.2-1.8c0.5-0.5,1.1-0.9,1.8-1.2c0.7-0.3,1.4-0.4,2.3-0.4c0.8,0,1.4,0.1,2,0.2
				c0.5,0.1,1,0.3,1.3,0.6c0.2,0.1,0.4,0.2,0.6,0.3c0.2,0,0.3,0,0.3-0.1l0.1-0.1h0.2v1.8h-0.3l-0.1-0.3c-0.2-0.3-0.4-0.7-0.7-1
				c-0.3-0.3-0.6-0.6-0.8-0.7c-0.3-0.2-0.7-0.3-1.1-0.5c-0.4-0.1-0.9-0.2-1.4-0.2c-0.6,0-1.2,0.1-1.7,0.4c-0.5,0.3-1,0.7-1.3,1.1
				c-0.4,0.5-0.7,1.1-0.9,1.7c-0.2,0.7-0.3,1.4-0.3,2.2c0,0.8,0.1,1.5,0.3,2.2c0.2,0.7,0.5,1.3,0.8,1.7s0.8,0.9,1.3,1.1
				c0.5,0.3,1,0.4,1.6,0.4c0.5,0,1-0.1,1.4-0.2c0.4-0.1,0.8-0.3,1.2-0.5c0.3-0.2,0.6-0.4,0.9-0.7c0.3-0.3,0.5-0.6,0.7-1l0.1-0.3h0.3
				V34.2z"/>
		</g>
		<g>
			<path d="M29.1,24.2v-0.3h1.9l7.2,8.6l0-7.6c0-0.2,0-0.4-0.1-0.5c-0.1-0.1-0.2-0.2-0.4-0.2v-0.3h1.4v0.3c-0.3,0-0.5,0.2-0.5,0.6
				l-0.1,9.9h-0.3l-7.5-9.2l0,8.2c0,0.2,0,0.4,0.1,0.5c0.1,0.1,0.2,0.2,0.4,0.2v0.3h-1.4v-0.3c0.2,0,0.3-0.1,0.4-0.2
				c0.1-0.1,0.1-0.3,0.1-0.5l0-8.6l-0.3-0.3C29.8,24.4,29.5,24.2,29.1,24.2z"/>
		</g>
		<g>
			<path d="M43.9,34.8l0-0.3c0.2,0,0.3-0.1,0.4-0.2s0.1-0.3,0.1-0.5v-9.4h-2.6c-0.3,0-0.7,0.1-1,0.3c-0.3,0.2-0.6,0.4-0.8,0.7
				l-0.1,0.2h-0.2c0.1-0.2,0.1-0.4,0.2-0.6c0.1-0.2,0.2-0.4,0.2-0.6V24l0,0v0v0h10v0.3c0.1,0.2,0.1,0.4,0.2,0.6
				c0.1,0.2,0.1,0.4,0.2,0.6h-0.2l-0.1-0.2c-0.2-0.3-0.5-0.5-0.8-0.7c-0.3-0.2-0.7-0.3-1-0.3h-2.6v9.4c0,0.2,0,0.4,0.1,0.5
				c0.1,0.1,0.2,0.2,0.4,0.2v0.3H43.9z M40.1,24.1L40,24.2C40,24.2,40,24.1,40.1,24.1C40,24.1,40,24.1,40.1,24.1z M50,24.1l0.1,0.1
				C50.1,24.2,50.1,24.2,50,24.1C50.1,24.1,50.1,24.1,50,24.1z"/>
		</g>
		<g>
			<path class="st6" d="M57.3,24.6l0.2,0v1.6h-0.3L57.2,26c-0.2-0.4-0.4-0.7-0.7-1c-0.3-0.3-0.6-0.5-0.9-0.7c-0.5-0.2-1-0.3-1.6-0.3
				c-0.3,0-0.5,0.1-0.8,0.2c-0.2,0.1-0.5,0.3-0.6,0.5c-0.2,0.2-0.3,0.4-0.4,0.7c-0.1,0.3-0.1,0.6-0.1,0.9c0,0.4,0.3,0.8,0.8,1.2
				c0.5,0.5,1.3,0.9,2.3,1.3c0.5,0.2,0.9,0.4,1.3,0.7c0.4,0.3,0.7,0.5,0.9,0.8c0.3,0.3,0.4,0.6,0.6,0.9c0.1,0.3,0.2,0.6,0.2,0.9
				c0,0.4-0.1,0.8-0.3,1.2c-0.2,0.4-0.4,0.7-0.7,0.9c-0.3,0.3-0.7,0.5-1.1,0.6c-0.4,0.1-0.9,0.2-1.4,0.2c-0.5,0-0.9-0.1-1.4-0.2
				c-0.5-0.1-0.9-0.3-1.2-0.6c-0.2-0.2-0.5-0.3-0.6-0.3c-0.2,0-0.3,0-0.3,0.1l-0.1,0.2h-0.2V32h0.3l0.1,0.3c0.2,0.4,0.4,0.8,0.7,1.2
				c0.3,0.4,0.6,0.6,0.9,0.8c0.3,0.2,0.6,0.3,0.9,0.4c0.3,0.1,0.6,0.1,1,0.1c0.3,0,0.6-0.1,0.9-0.2c0.3-0.1,0.5-0.3,0.7-0.5
				c0.2-0.2,0.4-0.5,0.5-0.8c0.1-0.3,0.2-0.6,0.2-1c0-0.3-0.2-0.7-0.7-1.1c-0.5-0.4-1.1-0.8-2-1.1c-0.5-0.2-1-0.4-1.4-0.7
				c-0.4-0.3-0.8-0.6-1-0.9c-0.3-0.3-0.5-0.6-0.6-0.9C51.1,27.4,51,27,51,26.7c0-0.4,0.1-0.8,0.2-1.1c0.1-0.3,0.4-0.6,0.6-0.9
				c0.3-0.3,0.6-0.4,1-0.6c0.4-0.1,0.8-0.2,1.2-0.2c0.6,0,1.1,0.1,1.5,0.2l0.7,0.3c0.1,0,0.2,0.1,0.4,0.2c0.1,0.1,0.3,0.1,0.4,0.1
				C57.2,24.8,57.2,24.8,57.3,24.6L57.3,24.6L57.3,24.6z M51,32.6"/>
		</g>
		<g>
			<path d="M58.9,29.4c0-0.8,0.1-1.6,0.4-2.2c0.3-0.7,0.7-1.3,1.2-1.8c0.5-0.5,1.1-0.9,1.8-1.2c0.7-0.3,1.4-0.4,2.3-0.4
				c0.8,0,1.6,0.1,2.3,0.4c0.7,0.3,1.3,0.7,1.8,1.2c0.5,0.5,0.9,1.1,1.2,1.8c0.3,0.7,0.4,1.4,0.4,2.2c0,0.8-0.1,1.6-0.4,2.2
				c-0.3,0.7-0.7,1.3-1.2,1.8c-0.5,0.5-1.1,0.9-1.9,1.2c-0.7,0.3-1.5,0.4-2.4,0.4c-0.8,0-1.5-0.1-2.2-0.4c-0.7-0.3-1.3-0.7-1.7-1.2
				c-0.5-0.5-0.9-1.1-1.1-1.8C59,31,58.9,30.3,58.9,29.4z M60.4,29.4c0,0.8,0.1,1.5,0.3,2.2c0.2,0.7,0.5,1.2,0.8,1.7
				c0.4,0.5,0.8,0.9,1.3,1.1s1,0.4,1.6,0.4c0.6,0,1.2-0.1,1.8-0.4s1-0.7,1.4-1.1c0.4-0.5,0.7-1.1,0.9-1.7c0.2-0.7,0.3-1.4,0.3-2.2
				c0-0.8-0.1-1.5-0.3-2.2c-0.2-0.7-0.5-1.2-0.9-1.7c-0.4-0.5-0.8-0.9-1.4-1.1c-0.5-0.3-1.1-0.4-1.7-0.4c-0.6,0-1.2,0.1-1.7,0.4
				c-0.5,0.3-1,0.7-1.3,1.1c-0.4,0.5-0.7,1.1-0.9,1.7C60.5,27.9,60.4,28.7,60.4,29.4z"/>
		</g>
		<g>
			<path d="M71,24.3l0-0.3h4.4c0.5,0,1,0.1,1.5,0.2c0.5,0.2,0.8,0.4,1.2,0.6c0.3,0.3,0.6,0.6,0.8,1s0.3,0.8,0.3,1.2
				c0,0.7-0.2,1.2-0.7,1.7c-0.4,0.4-1,0.7-1.8,0.9c0.2,0.3,0.5,0.8,1,1.5c0.4,0.7,1,1.5,1.5,2.5c0.1,0.2,0.2,0.4,0.3,0.5
				c0.1,0.1,0.2,0.2,0.3,0.3c0.1,0.1,0.2,0.1,0.4,0.1c0.2,0,0.4,0,0.6,0v0.3c-0.6,0-1,0-1.4,0c-0.3,0-0.6-0.1-0.8-0.1
				s-0.4-0.2-0.5-0.3c-0.1-0.2-0.3-0.4-0.5-0.6c-0.3-0.5-0.6-0.9-0.8-1.3c-0.3-0.4-0.5-0.8-0.7-1.1c-0.2-0.3-0.4-0.6-0.5-0.9
				c-0.1-0.3-0.2-0.4-0.3-0.6h-2.5v4.1c0,0.2,0,0.4,0.1,0.5c0.1,0.1,0.2,0.2,0.4,0.2v0.3H71v-0.3c0.2,0,0.3-0.1,0.4-0.2
				c0.1-0.1,0.1-0.3,0.1-0.5v-8.7c0-0.2,0-0.4-0.1-0.5C71.3,24.4,71.2,24.3,71,24.3z M72.9,29.3h2.5c0.7,0,1.2-0.2,1.6-0.6
				c0.4-0.4,0.6-1.1,0.6-1.9c0-0.4-0.1-0.7-0.2-1c-0.1-0.3-0.3-0.6-0.6-0.8c-0.2-0.2-0.5-0.4-0.8-0.5c-0.3-0.1-0.7-0.2-1.1-0.2h-2.1
				V29.3z"/>
		</g>
		<g>
			<path class="st6" d="M28.7,34.7H21v-0.3h0.1c0.2,0,0.4-0.1,0.5-0.3c0.1-0.2,0.2-0.4,0.2-0.7v-8.2c0-0.3-0.1-0.5-0.2-0.7
				c-0.1-0.2-0.3-0.3-0.5-0.3H21v-0.3h7.4v0c0,0.2,0,0.4,0.1,0.6c0,0.2,0.1,0.5,0.1,0.7h-0.2l-0.1-0.2c-0.1-0.3-0.3-0.4-0.6-0.6
				c-0.3-0.2-0.6-0.2-0.9-0.2l-3.6,0v4.8l2.8,0c0.3,0,0.6-0.1,0.8-0.3c0.3-0.2,0.4-0.5,0.5-0.8l0.1-0.2h0.2v1.3h0v0.1h0v1.3h-0.2
				l-0.1-0.2c-0.1-0.3-0.3-0.6-0.5-0.8c-0.3-0.2-0.5-0.3-0.8-0.3l-2.8,0v4.1c0,0.2,0,0.3,0,0.4c0,0.1,0.1,0.2,0.1,0.3
				c0.1,0.1,0.2,0.2,0.3,0.2c0.1,0.1,0.3,0.1,0.6,0.1l2.6,0c0.4,0,0.8-0.1,1.1-0.3c0.3-0.2,0.6-0.2,0.7-0.5l0.1-0.2h0.2
				c0,0,0,0.1,0,0.2c0,0.1,0,0.3-0.1,0.4c0,0.1,0,0.3-0.1,0.4C28.8,34.6,28.7,34.6,28.7,34.7z"/>
		</g>
		<g>
			<path class="st6" d="M84.5,34.7h-3.3v-0.3h0.1c0.2,0,0.4-0.1,0.5-0.3c0.1-0.2,0.2-0.4,0.2-0.7v-8.2c0-0.3-0.1-0.5-0.2-0.7
				c-0.1-0.2-0.3-0.3-0.5-0.3h-0.1v-0.3h3.3v0.3l-1.2,0v4.8l1.2,0v0.1l-1.2,0v4.1c0,0.2,0,0.3,0,0.4c0,0.1,0.1,0.2,0.1,0.3
				c0.1,0.1,0.2,0.2,0.3,0.2c0.1,0.1,0.3,0.1,0.6,0.1l0.1,0V34.7z"/>
		</g>
		<g>
			<path class="st6" d="M89,34.7h-4.4v-0.3l2.5,0c0.4,0,0.8-0.1,1.1-0.3c0.3-0.2,0.6-0.2,0.7-0.5l0.1-0.2h0.2c0,0,0,0.1,0,0.2
				c0,0.1,0,0.3-0.1,0.4c0,0.1,0,0.3-0.1,0.4C89,34.6,89,34.6,89,34.7L89,34.7z M84.5,23.9h4.1v0c0,0.2,0,0.4,0.1,0.6
				c0,0.2,0.1,0.5,0.1,0.7h-0.2l-0.1-0.2c-0.1-0.3-0.3-0.4-0.6-0.6c-0.3-0.2-0.6-0.2-0.9-0.2l-2.5,0V23.9L84.5,23.9z M84.5,29.1
				l1.7,0c0.3,0,0.6-0.1,0.8-0.3c0.3-0.2,0.4-0.5,0.5-0.8l0.1-0.2h0.2v1.3h0v0.1h0v1.3h-0.2l-0.1-0.2c-0.1-0.3-0.3-0.6-0.5-0.8
				c-0.3-0.2-0.5-0.3-0.8-0.3L84.5,29.1L84.5,29.1z"/>
		</g>
		<g>
			<path class="st6" d="M92.4,34.6c0.9,0,1.6-0.1,2.4-0.4c0.7-0.2,1.3-0.6,1.9-1c0.5-0.5,0.9-1,1.2-1.7c0.3-0.7,0.4-1.4,0.4-2.3
				c0-0.8-0.1-1.5-0.4-2.1c-0.2-0.6-0.6-1.2-1-1.7c-0.4-0.5-1-0.8-1.7-1.1C94.6,24.1,93.8,24,93,24l-2,0v9.5c0,0.2,0,0.3,0,0.4
				c0,0.1,0.1,0.2,0.2,0.3c0.1,0.1,0.2,0.2,0.4,0.2C91.8,34.6,92.1,34.6,92.4,34.6L92.4,34.6z M89.6,23.9h3.6c1,0,1.9,0.1,2.7,0.4
				c0.8,0.3,1.5,0.6,2,1.1c0.6,0.5,1,1,1.3,1.7c0.3,0.7,0.4,1.4,0.4,2.2c0,0.9-0.2,1.6-0.5,2.3c-0.4,0.7-0.9,1.2-1.5,1.7
				c-0.6,0.5-1.4,0.8-2.3,1c-0.9,0.2-1.9,0.4-2.9,0.4h-2.8v-1v-8.7V23.9z"/>
		</g>
		<g>
			<g>
				<g>
					<g>
						<path d="M36.6,17v0.4h0.5v0.2h-0.5v0.5h0.6v0.2h-0.8v-1.5h0.8V17H36.6z"/>
						<path d="M37.8,18.3c-0.1,0-0.1-0.1-0.2-0.2c0-0.1-0.1-0.1-0.1-0.2h0.3c0,0.1,0,0.1,0.1,0.2c0,0,0.1,0.1,0.2,0.1
							c0.1,0,0.2,0,0.2-0.1c0,0,0.1-0.1,0.1-0.2c0-0.1,0-0.1,0-0.1s-0.1-0.1-0.1-0.1c0,0-0.1,0-0.2-0.1c-0.1,0-0.2-0.1-0.2-0.1
							c-0.1,0-0.1-0.1-0.2-0.1c0-0.1-0.1-0.1-0.1-0.2c0-0.1,0-0.2,0.1-0.2c0-0.1,0.1-0.1,0.2-0.2c0.1,0,0.2-0.1,0.3-0.1
							c0.1,0,0.3,0,0.4,0.1c0.1,0.1,0.1,0.2,0.2,0.3h-0.3c0-0.1,0-0.1-0.1-0.1c0,0-0.1-0.1-0.2-0.1c-0.1,0-0.1,0-0.2,0.1
							c0,0-0.1,0.1-0.1,0.2c0,0,0,0.1,0,0.1c0,0,0.1,0.1,0.1,0.1c0,0,0.1,0,0.2,0.1c0.1,0,0.2,0.1,0.2,0.1c0.1,0,0.1,0.1,0.2,0.1
							c0,0.1,0.1,0.1,0.1,0.2c0,0.1,0,0.2-0.1,0.2c0,0.1-0.1,0.1-0.2,0.2c-0.1,0-0.2,0.1-0.3,0.1C37.9,18.3,37.8,18.3,37.8,18.3z"/>
						<path d="M39.8,16.8V17h-0.4v1.3h-0.3V17h-0.4v-0.2H39.8z"/>
						<path d="M41,16.9c0.1,0.1,0.2,0.2,0.3,0.3c0.1,0.1,0.1,0.3,0.1,0.4s0,0.3-0.1,0.4c-0.1,0.1-0.2,0.2-0.3,0.3
							c-0.1,0.1-0.3,0.1-0.4,0.1h-0.5v-1.5h0.5C40.8,16.8,40.9,16.8,41,16.9z M41,18c0.1-0.1,0.1-0.2,0.1-0.4c0-0.2,0-0.3-0.1-0.4
							c-0.1-0.1-0.2-0.1-0.4-0.1h-0.2v1.1h0.2C40.8,18.1,40.9,18.1,41,18z"/>
					</g>
					<g>
						<path d="M61.1,18c0.1-0.1,0.3-0.2,0.3-0.3s0.1-0.2,0.2-0.2c0.1-0.1,0.1-0.2,0.1-0.3c0-0.1,0-0.2-0.1-0.2
							c0-0.1-0.1-0.1-0.2-0.1c-0.1,0-0.2,0-0.2,0.1c0,0.1-0.1,0.1-0.1,0.2h-0.2c0-0.2,0.1-0.3,0.2-0.4c0.1-0.1,0.2-0.1,0.4-0.1
							c0.2,0,0.3,0,0.4,0.1c0.1,0.1,0.1,0.2,0.1,0.4c0,0.1,0,0.2-0.1,0.3c-0.1,0.1-0.1,0.2-0.2,0.3c-0.1,0.1-0.2,0.2-0.3,0.3
							l-0.1,0.1H62v0.2h-1.1v-0.2L61.1,18z"/>
						<path d="M62.3,16.9c0.1-0.1,0.2-0.2,0.4-0.2c0.2,0,0.4,0.1,0.4,0.2c0.1,0.1,0.1,0.3,0.1,0.6c0,0.3,0,0.5-0.1,0.6
							c-0.1,0.1-0.2,0.2-0.4,0.2c-0.2,0-0.4-0.1-0.4-0.2c-0.1-0.1-0.1-0.3-0.1-0.6C62.2,17.3,62.2,17.1,62.3,16.9z M63.1,17.2
							c0-0.1,0-0.1-0.1-0.2c0-0.1-0.1-0.1-0.2-0.1c-0.1,0-0.2,0-0.2,0.1c0,0.1-0.1,0.1-0.1,0.2c0,0.1,0,0.2,0,0.3c0,0.1,0,0.2,0,0.3
							c0,0.1,0,0.2,0.1,0.2c0,0.1,0.1,0.1,0.2,0.1c0.1,0,0.2,0,0.2-0.1c0-0.1,0.1-0.1,0.1-0.2c0-0.1,0-0.2,0-0.3
							C63.1,17.4,63.1,17.3,63.1,17.2z"/>
						<path d="M63.7,18c0.1-0.1,0.3-0.2,0.3-0.3s0.1-0.2,0.2-0.2c0.1-0.1,0.1-0.2,0.1-0.3c0-0.1,0-0.2-0.1-0.2
							c0-0.1-0.1-0.1-0.2-0.1c-0.1,0-0.2,0-0.2,0.1c0,0.1-0.1,0.1-0.1,0.2h-0.2c0-0.2,0.1-0.3,0.2-0.4c0.1-0.1,0.2-0.1,0.4-0.1
							c0.2,0,0.3,0,0.4,0.1c0.1,0.1,0.1,0.2,0.1,0.4c0,0.1,0,0.2-0.1,0.3c-0.1,0.1-0.1,0.2-0.2,0.3c-0.1,0.1-0.2,0.2-0.3,0.3
							L64,18.1h0.7v0.2h-1.1v-0.2L63.7,18z"/>
						<path d="M65.9,17h-0.7v0.4c0,0,0.1-0.1,0.1-0.1c0.1,0,0.1,0,0.2,0c0.1,0,0.2,0,0.3,0.1c0.1,0.1,0.1,0.1,0.2,0.2
							c0,0.1,0,0.2,0,0.3c0,0.1,0,0.2-0.1,0.3c0,0.1-0.1,0.2-0.2,0.2c-0.1,0-0.2,0.1-0.3,0.1c-0.2,0-0.3,0-0.4-0.1
							c-0.1-0.1-0.2-0.2-0.2-0.3h0.2c0,0.1,0.1,0.1,0.1,0.2c0.1,0,0.1,0.1,0.2,0.1c0.1,0,0.2,0,0.2-0.1c0.1-0.1,0.1-0.1,0.1-0.3
							c0-0.1,0-0.2-0.1-0.2c-0.1-0.1-0.1-0.1-0.2-0.1c-0.1,0-0.1,0-0.2,0.1c0,0-0.1,0.1-0.1,0.1h-0.2v-0.9h1V17z"/>
					</g>
				</g>
			</g>
			<g>
				<g>
					<path class="st6" d="M47.7,10.5l-0.1,0v0.7h0.1l0.1-0.1c0.1-0.2,0.2-0.3,0.3-0.4c0.1-0.1,0.3-0.2,0.4-0.3
						c0.2-0.1,0.5-0.1,0.7-0.1c0.1,0,0.3,0,0.4,0.1c0.1,0,0.2,0.1,0.3,0.2c0.1,0.1,0.1,0.2,0.2,0.3c0,0.1,0.1,0.2,0.1,0.4
						c0,0.2-0.1,0.3-0.4,0.5c-0.2,0.2-0.6,0.4-1,0.5c-0.2,0.1-0.4,0.2-0.6,0.3c-0.2,0.1-0.3,0.2-0.4,0.3c-0.1,0.1-0.2,0.3-0.3,0.4
						c-0.1,0.1-0.1,0.3-0.1,0.4c0,0.2,0,0.3,0.1,0.5c0.1,0.2,0.2,0.3,0.3,0.4c0.1,0.1,0.3,0.2,0.5,0.3c0.2,0.1,0.4,0.1,0.6,0.1
						c0.2,0,0.4,0,0.6-0.1c0.2-0.1,0.4-0.1,0.6-0.2c0.1-0.1,0.2-0.1,0.3-0.1c0.1,0,0.1,0,0.2,0l0,0.1h0.1v-0.9h-0.1l-0.1,0.1
						c-0.1,0.2-0.2,0.3-0.3,0.5c-0.1,0.2-0.3,0.3-0.4,0.3c-0.1,0.1-0.3,0.1-0.4,0.2c-0.1,0-0.3,0.1-0.5,0.1c-0.2,0-0.3,0-0.4-0.1
						c-0.1-0.1-0.2-0.1-0.3-0.2c-0.1-0.1-0.2-0.2-0.2-0.3c-0.1-0.1-0.1-0.3-0.1-0.4c0-0.1,0.1-0.3,0.3-0.5c0.2-0.2,0.5-0.3,0.9-0.5
						c0.2-0.1,0.5-0.2,0.6-0.3c0.2-0.1,0.3-0.2,0.5-0.4c0.1-0.1,0.2-0.3,0.3-0.4c0.1-0.1,0.1-0.3,0.1-0.4c0-0.2,0-0.3-0.1-0.5
						c-0.1-0.1-0.2-0.3-0.3-0.4c-0.1-0.1-0.3-0.2-0.4-0.2c-0.2-0.1-0.4-0.1-0.6-0.1c-0.3,0-0.5,0-0.7,0.1c-0.2,0.1-0.3,0.1-0.5,0.2
						c-0.1,0-0.1,0-0.2,0.1C47.7,10.5,47.7,10.5,47.7,10.5L47.7,10.5z"/>
				</g>
				<g>
					<path class="st6" d="M54.8,10.5l0-0.1h-0.7v0.1l0.1,0.1c0.2,0.1,0.3,0.2,0.4,0.3c0.1,0.1,0.2,0.3,0.3,0.4
						c0.1,0.2,0.1,0.5,0.1,0.7c0,0.1,0,0.3-0.1,0.4c0,0.1-0.1,0.2-0.2,0.3c-0.1,0.1-0.2,0.1-0.3,0.2c-0.1,0-0.2,0.1-0.4,0.1
						c-0.2,0-0.3-0.1-0.5-0.4c-0.2-0.2-0.4-0.6-0.5-1c-0.1-0.2-0.2-0.4-0.3-0.6c-0.1-0.2-0.2-0.3-0.3-0.4c-0.1-0.1-0.3-0.2-0.4-0.3
						c-0.1-0.1-0.3-0.1-0.4-0.1c-0.2,0-0.3,0-0.5,0.1c-0.2,0.1-0.3,0.2-0.4,0.3c-0.1,0.1-0.2,0.3-0.3,0.5c-0.1,0.2-0.1,0.4-0.1,0.6
						c0,0.2,0,0.4,0.1,0.6c0.1,0.2,0.1,0.4,0.2,0.6c0.1,0.1,0.1,0.2,0.1,0.3c0,0.1,0,0.1,0,0.2l-0.1,0v0.1h0.9v-0.1l-0.1-0.1
						c-0.2-0.1-0.3-0.2-0.5-0.3c-0.2-0.1-0.3-0.3-0.3-0.4c-0.1-0.1-0.1-0.3-0.2-0.4c0-0.1-0.1-0.3-0.1-0.5c0-0.2,0-0.3,0.1-0.4
						c0.1-0.1,0.1-0.2,0.2-0.3c0.1-0.1,0.2-0.2,0.3-0.2c0.1-0.1,0.3-0.1,0.4-0.1c0.1,0,0.3,0.1,0.5,0.3c0.2,0.2,0.3,0.5,0.5,0.9
						c0.1,0.2,0.2,0.5,0.3,0.6c0.1,0.2,0.2,0.3,0.4,0.5c0.1,0.1,0.3,0.2,0.4,0.3c0.1,0.1,0.3,0.1,0.4,0.1c0.2,0,0.3,0,0.5-0.1
						c0.1-0.1,0.3-0.2,0.4-0.3c0.1-0.1,0.2-0.3,0.2-0.4c0.1-0.2,0.1-0.4,0.1-0.6c0-0.3,0-0.5-0.1-0.7c-0.1-0.2-0.1-0.3-0.2-0.5
						c0-0.1,0-0.1-0.1-0.2C54.7,10.6,54.7,10.6,54.8,10.5L54.8,10.5z"/>
				</g>
				<g>
					<path class="st6" d="M54.8,17.7l0.1,0V17h-0.1l-0.1,0.1c-0.1,0.2-0.2,0.3-0.3,0.4c-0.1,0.1-0.3,0.2-0.4,0.3
						c-0.2,0.1-0.5,0.1-0.7,0.1c-0.1,0-0.3,0-0.4-0.1c-0.1,0-0.2-0.1-0.3-0.2c-0.1-0.1-0.1-0.2-0.2-0.3c0-0.1-0.1-0.2-0.1-0.4
						c0-0.2,0.1-0.3,0.4-0.5c0.2-0.2,0.6-0.4,1-0.5c0.2-0.1,0.4-0.2,0.6-0.3c0.2-0.1,0.3-0.2,0.4-0.3c0.1-0.1,0.2-0.3,0.3-0.4
						c0.1-0.1,0.1-0.3,0.1-0.4c0-0.2,0-0.3-0.1-0.5c-0.1-0.2-0.2-0.3-0.3-0.4c-0.1-0.1-0.3-0.2-0.5-0.3c-0.2-0.1-0.4-0.1-0.6-0.1
						c-0.2,0-0.4,0-0.6,0.1c-0.2,0.1-0.4,0.1-0.6,0.2c-0.1,0.1-0.2,0.1-0.3,0.1c-0.1,0-0.1,0-0.2,0l0-0.1h-0.1v0.9h0.1l0.1-0.1
						c0.1-0.2,0.2-0.3,0.3-0.5c0.1-0.2,0.3-0.3,0.4-0.3c0.1-0.1,0.3-0.1,0.4-0.2c0.1,0,0.3-0.1,0.5-0.1c0.2,0,0.3,0,0.4,0.1
						c0.1,0.1,0.2,0.1,0.3,0.2c0.1,0.1,0.2,0.2,0.2,0.3c0.1,0.1,0.1,0.3,0.1,0.4c0,0.1-0.1,0.3-0.3,0.5c-0.2,0.2-0.5,0.3-0.9,0.5
						c-0.2,0.1-0.5,0.2-0.6,0.3c-0.2,0.1-0.3,0.2-0.5,0.4c-0.1,0.1-0.2,0.3-0.3,0.4c-0.1,0.1-0.1,0.3-0.1,0.4c0,0.2,0,0.3,0.1,0.5
						c0.1,0.1,0.2,0.3,0.3,0.4c0.1,0.1,0.3,0.2,0.4,0.2c0.2,0.1,0.4,0.1,0.6,0.1c0.3,0,0.5,0,0.7-0.1c0.2-0.1,0.3-0.1,0.5-0.2
						c0.1,0,0.1,0,0.2-0.1C54.7,17.6,54.7,17.6,54.8,17.7L54.8,17.7z"/>
				</g>
				<g>
					<path class="st6" d="M47.6,17.6l0,0.1h0.7v-0.1l-0.1-0.1c-0.2-0.1-0.3-0.2-0.4-0.3c-0.1-0.1-0.2-0.3-0.3-0.4
						c-0.1-0.2-0.1-0.5-0.1-0.7c0-0.1,0-0.3,0.1-0.4c0-0.1,0.1-0.2,0.2-0.3c0.1-0.1,0.2-0.1,0.3-0.2c0.1,0,0.2-0.1,0.4-0.1
						c0.2,0,0.3,0.1,0.5,0.4c0.2,0.2,0.4,0.6,0.5,1c0.1,0.2,0.2,0.4,0.3,0.6c0.1,0.2,0.2,0.3,0.3,0.4c0.1,0.1,0.3,0.2,0.4,0.3
						c0.1,0.1,0.3,0.1,0.4,0.1c0.2,0,0.3,0,0.5-0.1c0.2-0.1,0.3-0.2,0.4-0.3c0.1-0.1,0.2-0.3,0.3-0.5c0.1-0.2,0.1-0.4,0.1-0.6
						c0-0.2,0-0.4-0.1-0.6c-0.1-0.2-0.1-0.4-0.2-0.6c-0.1-0.1-0.1-0.2-0.1-0.3c0-0.1,0-0.1,0-0.2l0.1,0v-0.1h-0.9v0.1l0.1,0.1
						c0.2,0.1,0.3,0.2,0.5,0.3c0.2,0.1,0.3,0.3,0.3,0.4c0.1,0.1,0.1,0.3,0.2,0.4c0,0.1,0.1,0.3,0.1,0.5c0,0.2,0,0.3-0.1,0.4
						c-0.1,0.1-0.1,0.2-0.2,0.3c-0.1,0.1-0.2,0.2-0.3,0.2c-0.1,0.1-0.3,0.1-0.4,0.1c-0.1,0-0.3-0.1-0.5-0.3
						c-0.2-0.2-0.3-0.5-0.5-0.9c-0.1-0.2-0.2-0.5-0.3-0.6c-0.1-0.2-0.2-0.3-0.4-0.5c-0.1-0.1-0.3-0.2-0.4-0.3
						c-0.1-0.1-0.3-0.1-0.4-0.1c-0.2,0-0.3,0-0.5,0.1c-0.1,0.1-0.3,0.2-0.4,0.3c-0.1,0.1-0.2,0.3-0.2,0.4c-0.1,0.2-0.1,0.4-0.1,0.6
						c0,0.3,0,0.5,0.1,0.7c0.1,0.2,0.1,0.3,0.2,0.5c0,0.1,0,0.1,0.1,0.2C47.7,17.5,47.7,17.6,47.6,17.6L47.6,17.6z"/>
				</g>
				<g>
					<rect x="50.7" y="13.6" transform="matrix(0.7071 -0.7071 0.7071 0.7071 5.0486 40.3354)" class="st6" width="1" height="1"/>
				</g>
			</g>
			<g>
				<path class="st6" d="M51.2,6.9c1.5,0,2.8,0.6,3.7,1.6c1,1,1.6,2.3,1.6,3.7v3.7c0,1.5-0.6,2.8-1.6,3.7c-1,1-2.3,1.6-3.7,1.6
					c-1.5,0-2.8-0.6-3.7-1.6c-1-1-1.6-2.3-1.6-3.7v-3.7c0-1.5,0.6-2.8,1.6-3.7C48.4,7.5,49.8,6.9,51.2,6.9L51.2,6.9z M51.2,7.1
					c-1.4,0-2.7,0.6-3.6,1.5c-0.9,0.9-1.5,2.2-1.5,3.6v3.7c0,1.4,0.6,2.7,1.5,3.6c0.9,0.9,2.2,1.5,3.6,1.5c1.4,0,2.7-0.6,3.6-1.5
					c0.9-0.9,1.5-2.2,1.5-3.6v-3.7c0-1.4-0.6-2.7-1.5-3.6C53.9,7.7,52.6,7.1,51.2,7.1z"/>
			</g>
			<g>
				<g>
					<g>
						<path class="st6" d="M51.2,19.9c-0.1-0.1-0.2-0.2-0.2-0.4c0-0.2,0.1-0.3,0.2-0.4c0.1,0.1,0.2,0.2,0.2,0.4
							C51.4,19.7,51.4,19.9,51.2,19.9z"/>
					</g>
					<g>
						<path class="st6" d="M51.2,19.1c-0.3,0-0.5,0.2-0.6,0.6c0.3-0.2,0.3-0.2,0.6-0.2c0.3,0,0.4,0.1,0.6,0.2
							C51.8,19.2,51.6,19.1,51.2,19.1z"/>
					</g>
				</g>
				<g>
					<g>
						<path class="st6" d="M51.2,8.2C51.1,8.3,51,8.4,51,8.6c0,0.2,0.1,0.3,0.2,0.4c0.1-0.1,0.2-0.2,0.2-0.4
							C51.4,8.4,51.4,8.3,51.2,8.2z"/>
					</g>
					<g>
						<path class="st6" d="M51.2,9.1c-0.3,0-0.5-0.2-0.6-0.6c0.3,0.2,0.3,0.2,0.6,0.2c0.3,0,0.4-0.1,0.6-0.2
							C51.8,8.9,51.6,9.1,51.2,9.1z"/>
					</g>
				</g>
			</g>
		</g>
		<g>
			<path d="M14.3,44.1V40h1.3c0.3,0,0.5,0.1,0.7,0.2c0.2,0.1,0.3,0.3,0.4,0.5c0.1,0.2,0.1,0.4,0.1,0.7c0,0.2,0,0.5-0.1,0.7
				c-0.1,0.2-0.2,0.4-0.4,0.5c-0.2,0.1-0.4,0.2-0.7,0.2h-0.9v-0.4h0.9c0.2,0,0.4,0,0.5-0.1c0.1-0.1,0.2-0.2,0.3-0.3
				c0.1-0.1,0.1-0.3,0.1-0.4c0-0.2,0-0.3-0.1-0.4c-0.1-0.1-0.1-0.2-0.3-0.3c-0.1-0.1-0.3-0.1-0.5-0.1h-0.8v3.6H14.3z"/>
			<path d="M23,44.1V40h2.3v0.4h-1.8v1.4h1.7v0.4h-1.7v1.4h1.8v0.4H23z"/>
			<path d="M31.5,44.1V40h1.3c0.3,0,0.5,0.1,0.7,0.2c0.2,0.1,0.3,0.3,0.4,0.4c0.1,0.2,0.1,0.4,0.1,0.6c0,0.2,0,0.5-0.1,0.6
				c-0.1,0.2-0.2,0.3-0.4,0.4c-0.2,0.1-0.4,0.2-0.7,0.2h-1V42h1c0.2,0,0.4,0,0.5-0.1c0.1-0.1,0.2-0.2,0.3-0.3
				c0.1-0.1,0.1-0.3,0.1-0.4c0-0.2,0-0.3-0.1-0.4c-0.1-0.1-0.1-0.2-0.3-0.3c-0.1-0.1-0.3-0.1-0.5-0.1H32v3.6H31.5z M33.7,44.1
				l-0.9-1.8h0.5l0.9,1.8H33.7z"/>
			<path d="M40.3,44.1V40h2.3v0.4h-1.8v1.4h1.6v0.4h-1.6v1.8H40.3z"/>
			<path d="M51.2,40h0.5v2.7c0,0.3-0.1,0.5-0.2,0.7c-0.1,0.2-0.3,0.4-0.5,0.5c-0.2,0.1-0.5,0.2-0.8,0.2c-0.3,0-0.6-0.1-0.8-0.2
				c-0.2-0.1-0.4-0.3-0.5-0.5c-0.1-0.2-0.2-0.5-0.2-0.7V40h0.5v2.7c0,0.2,0,0.4,0.1,0.5c0.1,0.2,0.2,0.3,0.3,0.4
				c0.2,0.1,0.3,0.1,0.5,0.1s0.4,0,0.5-0.1c0.1-0.1,0.3-0.2,0.3-0.4c0.1-0.2,0.1-0.3,0.1-0.5V40z"/>
			<path d="M58,40h0.5l1.3,3.4h0l1.3-3.4h0.6v4.1h-0.4V41h0l-1.2,3.1h-0.4L58.5,41h0v3.1H58V40z"/>
			<path d="M68.1,44.1V40h2.3v0.4h-1.8v1.4h1.7v0.4h-1.7v1.4h1.8v0.4H68.1z"/>
			<path d="M76.6,44.1V40h1.3c0.3,0,0.5,0.1,0.7,0.2c0.2,0.1,0.3,0.3,0.4,0.4c0.1,0.2,0.1,0.4,0.1,0.6c0,0.2,0,0.5-0.1,0.6
				c-0.1,0.2-0.2,0.3-0.4,0.4c-0.2,0.1-0.4,0.2-0.7,0.2h-1V42h1c0.2,0,0.4,0,0.5-0.1c0.1-0.1,0.2-0.2,0.3-0.3
				c0.1-0.1,0.1-0.3,0.1-0.4c0-0.2,0-0.3-0.1-0.4c-0.1-0.1-0.1-0.2-0.3-0.3c-0.1-0.1-0.3-0.1-0.5-0.1h-0.8v3.6H76.6z M78.8,44.1
				l-0.9-1.8h0.5l0.9,1.8H78.8z"/>
			<path d="M84.9,40h0.5l1,1.9h0l1-1.9h0.5l-1.4,2.4v1.7h-0.5v-1.7L84.9,40z"/>
		</g>
	</g>
</g>
</svg>
